arm28_optimize_states
version=1
nRows=33
nColumns=21
inDegrees=yes

# SIMM Motion File Header:
name arm28_optimize_states
datacolumns 21
datarows 33
otherdata 1
range 0.95649526 1.10694681
endheader
time	r_shoulder_elev	r_elbow_flex	r_shoulder_elev_u	r_elbow_flex_u	TRIlong.activation	TRIlong.fiber_length	TRIlat.activation	TRIlat.fiber_length	TRImed.activation	TRImed.fiber_length	BIClong.activation	BIClong.fiber_length	BICshort.activation	BICshort.fiber_length	BRA.activation	BRA.fiber_length	DeltAnt.activation	DeltAnt.fiber_length	DeltPost.activation	DeltPost.fiber_length
      0.95649526	      8.31859877	    -15.32739759	      1.02629499	     18.10624761	      0.01000016	      0.13857606	      0.01000016	      0.06706545	      0.01000016	      0.06212344	      0.01000029	      0.14440850	      0.01000034	      0.14878628	      0.01000017	      0.08559211	      0.01000016	      0.15720615	      0.01000034	      0.11576057
      0.96120633	      8.32342571	    -15.24064920	      1.02343656	     18.71784296	      0.01000015	      0.13858571	      0.01000015	      0.06707229	      0.01000015	      0.06213029	      0.01000027	      0.14440698	      0.01000032	      0.14878617	      0.01000016	      0.08560363	      0.01000015	      0.15720318	      0.01000032	      0.11576435
      0.96591740	      8.32823894	    -15.15105067	      1.01952210	     19.31814686	      0.01000014	      0.13859577	      0.01000014	      0.06707957	      0.01000014	      0.06213758	      0.01000026	      0.14440537	      0.01000030	      0.14878596	      0.01000015	      0.08561552	      0.01000014	      0.15720015	      0.01000030	      0.11576811
      0.97011520	      8.33251460	    -15.06886178	      1.01783709	     19.83760604	      0.01000013	      0.13860509	      0.01000013	      0.06708642	      0.01000013	      0.06214444	      0.01000024	      0.14440387	      0.01000029	      0.14878570	      0.01000014	      0.08562640	      0.01000013	      0.15719752	      0.01000029	      0.11577146
      0.97431299	      8.33678254	    -14.98451454	      1.01555040	     20.34706113	      0.01000013	      0.13861476	      0.01000013	      0.06709364	      0.01000013	      0.06215167	      0.01000023	      0.14440230	      0.01000027	      0.14878537	      0.01000013	      0.08563754	      0.01000013	      0.15719485	      0.01000027	      0.11577480
      0.97943803	      8.34198237	    -14.87867852	      1.01399236	     20.95083781	      0.01000012	      0.13862705	      0.01000012	      0.06710295	      0.01000012	      0.06216099	      0.01000022	      0.14440028	      0.01000025	      0.14878485	      0.01000012	      0.08565149	      0.01000012	      0.15719163	      0.01000025	      0.11577887
      0.98456307	      8.34717514	    -14.76979497	      1.01204519	     21.53782654	      0.01000011	      0.13863988	      0.01000011	      0.06711284	      0.01000011	      0.06217088	      0.01000020	      0.14439813	      0.01000024	      0.14878420	      0.01000012	      0.08566580	      0.01000011	      0.15718838	      0.01000024	      0.11578293
      0.98877750	      8.35143955	    -14.67803769	      1.01191627	     22.00394455	      0.01000011	      0.13865087	      0.01000011	      0.06712140	      0.01000011	      0.06217944	      0.01000019	      0.14439626	      0.01000022	      0.14878355	      0.01000011	      0.08567781	      0.01000011	      0.15718575	      0.01000023	      0.11578626
      0.99299193	      8.35570281	    -14.58434085	      1.01121886	     22.45882394	      0.01000010	      0.13866224	      0.01000010	      0.06713037	      0.01000010	      0.06218841	      0.01000018	      0.14439429	      0.01000021	      0.14878281	      0.01000010	      0.08569005	      0.01000010	      0.15718309	      0.01000021	      0.11578959
      0.99820754	      8.36097679	    -14.46577781	      1.01152648	     23.00176609	      0.01000009	      0.13867687	      0.01000009	      0.06714204	      0.01000009	      0.06220007	      0.01000017	      0.14439172	      0.01000020	      0.14878175	      0.01000010	      0.08570548	      0.01000009	      0.15717982	      0.01000020	      0.11579371
      1.00342316	      8.36625322	    -14.34443625	      1.01129938	     23.52602539	      0.01000009	      0.13869213	      0.01000009	      0.06715434	      0.01000009	      0.06221238	      0.01000016	      0.14438898	      0.01000019	      0.14878052	      0.01000009	      0.08572121	      0.01000009	      0.15717651	      0.01000019	      0.11579783
      1.00744857	      8.37032639	    -14.24894910	      1.01259892	     23.91376246	      0.01000008	      0.13870435	      0.01000008	      0.06716429	      0.01000008	      0.06222232	      0.01000015	      0.14438675	      0.01000018	      0.14877945	      0.01000009	      0.08573354	      0.01000008	      0.15717400	      0.01000018	      0.11580101
      1.01147399	      8.37440391	    -14.15192384	      1.01328958	     24.29056046	      0.01000008	      0.13871696	      0.01000008	      0.06717463	      0.01000008	      0.06223265	      0.01000014	      0.14438440	      0.01000017	      0.14877826	      0.01000008	      0.08574603	      0.01000008	      0.15717146	      0.01000017	      0.11580419
      1.01696792	      8.37997528	    -14.01710874	      1.01522304	     24.78271902	      0.01000007	      0.13873481	      0.01000007	      0.06718940	      0.01000007	      0.06224740	      0.01000013	      0.14438104	      0.01000016	      0.14877646	      0.01000008	      0.08576331	      0.01000007	      0.15716801	      0.01000016	      0.11580854
      1.02246185	      8.38555836	    -13.87965643	      1.01663126	     25.25248219	      0.01000007	      0.13875341	      0.01000007	      0.06720491	      0.01000007	      0.06226290	      0.01000012	      0.14437744	      0.01000015	      0.14877444	      0.01000007	      0.08578084	      0.01000007	      0.15716451	      0.01000015	      0.11581289
      1.02630152	      8.38946630	    -13.78209362	      1.01902827	     25.56366844	      0.01000007	      0.13876686	      0.01000007	      0.06721621	      0.01000007	      0.06227418	      0.01000012	      0.14437479	      0.01000014	      0.14877289	      0.01000007	      0.08579323	      0.01000007	      0.15716211	      0.01000014	      0.11581594
      1.03014119	      8.39338237	    -13.68335631	      1.02078013	     25.86440801	      0.01000006	      0.13878068	      0.01000006	      0.06722789	      0.01000006	      0.06228584	      0.01000011	      0.14437203	      0.01000013	      0.14877123	      0.01000007	      0.08580570	      0.01000006	      0.15715967	      0.01000013	      0.11581900
      1.03602488	      8.39939861	    -13.52988251	      1.02468688	     26.29916209	      0.01000006	      0.13880259	      0.01000006	      0.06724651	      0.01000006	      0.06230443	      0.01000010	      0.14436760	      0.01000012	      0.14876845	      0.01000006	      0.08582478	      0.01000006	      0.15715594	      0.01000012	      0.11582369
      1.04091125	      8.40441479	    -13.40054143	      1.02833722	     26.63718489	      0.01000005	      0.13882147	      0.01000005	      0.06726266	      0.01000005	      0.06232055	      0.01000010	      0.14436367	      0.01000011	      0.14876593	      0.01000006	      0.08584070	      0.01000005	      0.15715281	      0.01000012	      0.11582759
      1.04579763	      8.40945145	    -13.26960402	      1.03365401	     26.95127065	      0.01000005	      0.13884097	      0.01000005	      0.06727942	      0.01000005	      0.06233727	      0.01000009	      0.14435956	      0.01000011	      0.14876320	      0.01000005	      0.08585671	      0.01000005	      0.15714970	      0.01000011	      0.11583152
      1.05068400	      8.41451488	    -13.13718392	      1.03843527	     27.24582713	      0.01000005	      0.13886109	      0.01000005	      0.06729680	      0.01000005	      0.06235461	      0.01000009	      0.14435524	      0.01000010	      0.14876027	      0.01000005	      0.08587282	      0.01000005	      0.15714653	      0.01000010	      0.11583546
      1.05491213	      8.41891724	    -13.02148229	      1.04423512	     27.48039844	      0.01000005	      0.13887900	      0.01000005	      0.06731233	      0.01000005	      0.06237010	      0.01000008	      0.14435133	      0.01000010	      0.14875756	      0.01000005	      0.08588683	      0.01000005	      0.15714382	      0.01000010	      0.11583888
      1.05914027	      8.42334346	    -12.90482065	      1.04940694	     27.70058098	      0.01000004	      0.13889737	      0.01000004	      0.06732832	      0.01000004	      0.06238604	      0.01000008	      0.14434726	      0.01000009	      0.14875470	      0.01000004	      0.08590088	      0.01000004	      0.15714106	      0.01000009	      0.11584233
      1.06425260	      8.42872628	    -12.76257393	      1.05673889	     27.94342751	      0.01000004	      0.13892021	      0.01000004	      0.06734825	      0.01000004	      0.06240592	      0.01000007	      0.14434214	      0.01000008	      0.14875103	      0.01000004	      0.08591792	      0.01000004	      0.15713773	      0.01000009	      0.11584651
      1.06936492	      8.43414685	    -12.61914565	      1.06340513	     28.16442062	      0.01000004	      0.13894371	      0.01000004	      0.06736883	      0.01000004	      0.06242644	      0.01000007	      0.14433677	      0.01000008	      0.14874712	      0.01000004	      0.08593499	      0.01000004	      0.15713434	      0.01000008	      0.11585073
      1.07358013	      8.43864309	    -12.50007876	      1.07013808	     28.32645215	      0.01000004	      0.13896358	      0.01000004	      0.06738629	      0.01000004	      0.06244385	      0.01000006	      0.14433216	      0.01000008	      0.14874371	      0.01000004	      0.08594909	      0.01000004	      0.15713157	      0.01000008	      0.11585422
      1.07779534	      8.44316655	    -12.38036005	      1.07603214	     28.47430071	      0.01000003	      0.13898390	      0.01000003	      0.06740418	      0.01000003	      0.06246168	      0.01000006	      0.14432739	      0.01000007	      0.14874015	      0.01000004	      0.08596319	      0.01000003	      0.15712875	      0.01000007	      0.11585774
      1.08296601	      8.44875029	    -12.23270848	      1.08401045	     28.63224163	      0.01000003	      0.13900943	      0.01000003	      0.06742670	      0.01000003	      0.06248412	      0.01000006	      0.14432133	      0.01000007	      0.14873556	      0.01000003	      0.08598047	      0.01000003	      0.15712530	      0.01000007	      0.11586208
      1.08813669	      8.45437481	    -12.08430164	      1.09099931	     28.76813093	      0.01000003	      0.13903560	      0.01000003	      0.06744985	      0.01000003	      0.06250719	      0.01000005	      0.14431501	      0.01000006	      0.14873072	      0.01000003	      0.08599773	      0.01000003	      0.15712178	      0.01000006	      0.11586645
      1.09226855	      8.45889607	    -11.96524592	      1.09763617	     28.85712612	      0.01000003	      0.13905696	      0.01000003	      0.06746879	      0.01000003	      0.06252606	      0.01000005	      0.14430977	      0.01000006	      0.14872668	      0.01000003	      0.08601149	      0.01000003	      0.15711900	      0.01000006	      0.11586997
      1.09640041	      8.46344320	    -11.84585114	      1.10328355	     28.93276367	      0.01000003	      0.13907873	      0.01000003	      0.06748811	      0.01000003	      0.06254531	      0.01000005	      0.14430439	      0.01000006	      0.14872248	      0.01000003	      0.08602522	      0.01000003	      0.15711617	      0.01000006	      0.11587350
      1.10167361	      8.46928069	    -11.69307787	      1.11094603	     29.00591217	      0.01000002	      0.13910705	      0.01000002	      0.06751330	      0.01000002	      0.06257040	      0.01000004	      0.14429731	      0.01000005	      0.14871691	      0.01000003	      0.08604267	      0.01000002	      0.15711255	      0.01000005	      0.11587804
      1.10694681	      8.47515758	    -11.53998306	      1.11742036	     29.05643657	      0.01000002	      0.13913599	      0.01000002	      0.06753907	      0.01000002	      0.06259607	      0.01000004	      0.14428996	      0.01000005	      0.14871109	      0.01000002	      0.08606003	      0.01000002	      0.15710888	      0.01000005	      0.11588260
